<svg width="259" height="190" viewBox="0 0 259 190" fill="none" xmlns="http://www.w3.org/2000/svg">
<g clip-path="url(#clip0_2365_74173)">
<path opacity="0.2" d="M34.2762 96.2598C30.8699 97.2889 27.6816 99.7805 26.8307 103.237C25.8574 107.21 28.1017 111.215 28.4261 115.294C29.4738 128.659 10.4611 138.088 13.1734 151.216C14.2503 156.436 18.6033 160.276 22.8925 163.448C29.7637 168.514 37.3874 172.989 45.8301 174.252C58.6445 176.172 72.0332 170.529 84.4885 174.095C94.5347 176.972 102.222 185.404 112.199 188.516C119.794 190.885 127.976 189.952 135.866 188.992C140.12 188.476 144.577 187.88 148.01 185.327C154.392 180.575 154.793 171.191 159.066 164.466C165.666 154.096 180.137 152.059 192.271 154.075C204.405 156.09 216.187 161.052 228.48 160.648C231.107 160.56 233.799 160.204 236.091 158.914C238.877 157.348 240.76 154.588 242.425 151.857C252.829 134.724 258.539 115.154 258.983 95.1137C259.055 91.6702 258.933 88.0777 257.313 85.0383C255.266 81.1932 251.173 78.8931 247.099 77.3454C237.317 73.6227 226.51 73.0137 216.924 68.815C207.678 64.7651 200.19 57.6626 192.138 51.5758C176.092 39.4695 157.494 31.1867 137.761 27.3592C133.137 26.4657 128.338 25.8275 123.743 26.8592C118.448 28.0479 113.885 31.3479 109.782 34.9004C98.8664 44.351 90.1179 56.0113 80.0584 66.3686C73.1189 73.5113 65.5625 80.0275 57.4771 85.8414C53.7543 88.5244 49.7975 91.7101 45.6493 93.6938C41.8521 95.5073 38.2915 95.0499 34.2762 96.2598Z" fill="#0B1941"/>
<path d="M82.9329 12.2695C82.9329 12.2695 72.6553 25.9188 80.0078 41.8284C87.3603 57.738 67.1935 83.3002 67.1935 83.3002" stroke="#535461" stroke-width="2" stroke-miterlimit="10"/>
<path d="M87.5412 7.1612C86.7248 10.6739 82.8186 12.7666 82.8186 12.7666C82.8186 12.7666 80.2392 9.16352 81.0556 5.65081C81.8719 2.1381 83.9806 -0.37211 85.7782 0.0453726C87.5757 0.462856 88.3575 3.64849 87.5412 7.1612Z" fill="#8ED16F"/>
<path d="M84.9175 6.54878C85.1741 5.44596 85.047 4.47397 84.6337 4.37778C84.2203 4.28158 83.6771 5.09761 83.4205 6.20043C83.1639 7.30325 83.2909 8.27525 83.7043 8.37144C84.1177 8.46764 84.6608 7.6516 84.9175 6.54878Z" fill="#8ED16F"/>
<path opacity="0.3" d="M84.9175 6.54878C85.1741 5.44596 85.047 4.47397 84.6337 4.37778C84.2203 4.28158 83.6771 5.09761 83.4205 6.20043C83.1639 7.30325 83.2909 8.27525 83.7043 8.37144C84.1177 8.46764 84.6608 7.6516 84.9175 6.54878Z" fill="black"/>
<path d="M85.7649 22.7665C82.3719 23.9897 78.4922 21.8465 78.4922 21.8465C78.4922 21.8465 80.1143 17.7221 83.51 16.5016C86.9057 15.2811 90.1578 15.7039 90.7827 17.4217C91.4076 19.1395 89.1579 21.5433 85.7649 22.7665Z" fill="#8ED16F"/>
<path d="M84.8117 20.0582C85.876 19.6733 86.6219 19.0378 86.4776 18.6388C86.3333 18.2398 85.3535 18.2285 84.2891 18.6135C83.2248 18.9985 82.4789 19.634 82.6232 20.0329C82.7675 20.4319 83.7473 20.4432 84.8117 20.0582Z" fill="#8ED16F"/>
<path opacity="0.3" d="M84.8117 20.0582C85.876 19.6733 86.6219 19.0378 86.4776 18.6388C86.3333 18.2398 85.3535 18.2285 84.2891 18.6135C83.2248 18.9985 82.4789 19.634 82.6232 20.0329C82.7675 20.4319 83.7473 20.4432 84.8117 20.0582Z" fill="black"/>
<path d="M84.9751 35.204C81.5821 36.4272 77.7024 34.284 77.7024 34.284C77.7024 34.284 79.3245 30.1597 82.7202 28.9391C86.1159 27.7186 89.368 28.1414 89.9929 29.8592C90.6178 31.577 88.3681 33.9835 84.9751 35.204Z" fill="#8ED16F"/>
<path d="M84.0616 32.6833C85.1269 32.2997 85.874 31.6651 85.7302 31.2657C85.5865 30.8664 84.6063 30.8536 83.5409 31.2372C82.4756 31.6207 81.7285 32.2554 81.8723 32.6547C82.016 33.054 82.9962 33.0668 84.0616 32.6833Z" fill="#8ED16F"/>
<path opacity="0.3" d="M84.0616 32.6833C85.1269 32.2997 85.874 31.6651 85.7302 31.2657C85.5865 30.8664 84.6063 30.8536 83.5409 31.2372C82.4756 31.6207 81.7285 32.2554 81.8723 32.6547C82.016 33.054 82.9962 33.0668 84.0616 32.6833Z" fill="black"/>
<path d="M88.9398 49.7938C85.5468 51.017 81.6671 48.8738 81.6671 48.8738C81.6671 48.8738 83.2892 44.7495 86.6849 43.529C90.0806 42.3084 93.3327 42.7312 93.9576 44.449C94.5825 46.1668 92.3329 48.5786 88.9398 49.7938Z" fill="#8ED16F"/>
<path d="M88.0268 47.2809C89.0921 46.8974 89.8392 46.2627 89.6954 45.8634C89.5517 45.4641 88.5715 45.4513 87.5061 45.8348C86.4408 46.2184 85.6937 46.853 85.8375 47.2524C85.9812 47.6517 86.9614 47.6645 88.0268 47.2809Z" fill="#8ED16F"/>
<path opacity="0.3" d="M88.0268 47.2809C89.0921 46.8974 89.8392 46.2627 89.6954 45.8634C89.5517 45.4641 88.5715 45.4513 87.5061 45.8348C86.4408 46.2184 85.6937 46.853 85.8375 47.2524C85.9812 47.6517 86.9614 47.6645 88.0268 47.2809Z" fill="black"/>
<path d="M86.3605 63.1376C82.9674 64.3608 79.0878 62.2176 79.0878 62.2176C79.0878 62.2176 80.7098 58.0932 84.1055 56.8727C87.5013 55.6522 90.7534 56.075 91.3783 57.7928C92.0032 59.5106 89.7562 61.9171 86.3605 63.1376Z" fill="#8ED16F"/>
<path d="M85.4546 60.3981C86.519 60.0131 87.2648 59.3776 87.1205 58.9787C86.9762 58.5797 85.9964 58.5684 84.9321 58.9533C83.8677 59.3383 83.1219 59.9738 83.2662 60.3728C83.4105 60.7717 84.3903 60.7831 85.4546 60.3981Z" fill="#8ED16F"/>
<path opacity="0.3" d="M85.4546 60.3981C86.519 60.0131 87.2648 59.3776 87.1205 58.9787C86.9762 58.5797 85.9964 58.5684 84.9321 58.9533C83.8677 59.3383 83.1219 59.9738 83.2662 60.3728C83.4105 60.7717 84.3903 60.7831 85.4546 60.3981Z" fill="black"/>
<path d="M70.4456 26.3014C72.9505 28.8967 77.378 28.6946 77.378 28.6946C77.378 28.6946 77.7423 24.2778 75.2374 21.6825C72.7325 19.0872 69.6293 18.0182 68.305 19.2893C66.9808 20.5604 67.9407 23.7061 70.4456 26.3014Z" fill="#8ED16F"/>
<path d="M74.3607 25.3812C74.6661 25.0864 74.2761 24.187 73.4897 23.3724C72.7033 22.5578 71.8182 22.1363 71.5129 22.4311C71.2075 22.7259 71.5975 23.6252 72.3839 24.4399C73.1703 25.2545 74.0554 25.6759 74.3607 25.3812Z" fill="#8ED16F"/>
<path opacity="0.3" d="M74.3607 25.3812C74.6661 25.0864 74.2761 24.187 73.4897 23.3724C72.7033 22.5578 71.8182 22.1363 71.5129 22.4311C71.2075 22.7259 71.5975 23.6252 72.3839 24.4399C73.1703 25.2545 74.0554 25.6759 74.3607 25.3812Z" fill="black"/>
<path d="M69.007 67.5143C71.5119 70.1096 75.9394 69.9075 75.9394 69.9075C75.9394 69.9075 76.3037 65.4907 73.7988 62.8954C71.2939 60.3001 68.1907 59.2311 66.8664 60.5022C65.5422 61.7733 66.5021 64.919 69.007 67.5143Z" fill="#8ED16F"/>
<path d="M72.9184 66.598C73.2238 66.3032 72.8338 65.4038 72.0474 64.5892C71.261 63.7746 70.3759 63.3531 70.0706 63.6479C69.7652 63.9427 70.1552 64.842 70.9416 65.6567C71.728 66.4713 72.6131 66.8927 72.9184 66.598Z" fill="#8ED16F"/>
<path opacity="0.3" d="M72.9184 66.598C73.2238 66.3032 72.8338 65.4038 72.0474 64.5892C71.261 63.7746 70.3759 63.3531 70.0706 63.6479C69.7652 63.9427 70.1552 64.842 70.9416 65.6567C71.728 66.4713 72.6131 66.8927 72.9184 66.598Z" fill="black"/>
<path d="M72.3282 40.8687C75.5564 42.4802 79.6595 40.8049 79.6595 40.8049C79.6595 40.8049 78.5293 36.5211 75.3038 34.9096C72.0783 33.2982 68.7943 33.3142 67.9726 34.9735C67.1509 36.6328 69.1001 39.2573 72.3282 40.8687Z" fill="#8ED16F"/>
<path d="M75.7024 38.6862C75.8919 38.3064 75.2242 37.5887 74.211 37.0831C73.1979 36.5776 72.223 36.4756 72.0334 36.8553C71.8439 37.2351 72.5116 37.9528 73.5248 38.4584C74.5379 38.964 75.5129 39.066 75.7024 38.6862Z" fill="#8ED16F"/>
<path opacity="0.3" d="M75.7024 38.6862C75.8919 38.3064 75.2242 37.5887 74.211 37.0831C73.1979 36.5776 72.223 36.4756 72.0334 36.8553C71.8439 37.2351 72.5116 37.9528 73.5248 38.4584C74.5379 38.964 75.5129 39.066 75.7024 38.6862Z" fill="black"/>
<path d="M73.6818 55.3785C76.91 56.9899 81.013 55.3147 81.013 55.3147C81.013 55.3147 79.8829 51.0308 76.6574 49.4194C73.4319 47.808 70.1478 47.8239 69.3262 49.4832C68.5045 51.1425 70.4669 53.783 73.6818 55.3785Z" fill="#8ED16F"/>
<path d="M77.057 53.1979C77.2465 52.8182 76.5788 52.1004 75.5657 51.5949C74.5525 51.0893 73.5776 50.9873 73.3881 51.3671C73.1985 51.7468 73.8662 52.4645 74.8794 52.9701C75.8925 53.4757 76.8675 53.5777 77.057 53.1979Z" fill="#8ED16F"/>
<path opacity="0.3" d="M77.057 53.1979C77.2465 52.8182 76.5788 52.1004 75.5657 51.5949C74.5525 51.0893 73.5776 50.9873 73.3881 51.3671C73.1985 51.7468 73.8662 52.4645 74.8794 52.9701C75.8925 53.4757 76.8675 53.5777 77.057 53.1979Z" fill="black"/>
<path d="M33.4332 41.6074C33.4332 41.6074 52.2039 60.3782 41.6073 88.2326C31.0107 116.087 59.7718 162.406 59.7718 162.406C59.7718 162.406 59.4634 162.361 58.8916 162.26C20.3343 155.455 1.18858 111.362 22.6211 78.6065C30.5799 66.4277 37.1347 52.1429 33.4332 41.6074Z" fill="#8ED16F"/>
<path d="M0 117.528C0 117.528 21.4193 114.116 23.3711 133.312C25.3229 152.508 64.5583 155.17 64.5583 155.17C64.5583 155.17 64.2924 155.346 63.8217 155.659C31.4256 176.932 0.457371 169.205 5.12414 140.968C6.86321 130.467 6.71962 119.923 0 117.528Z" fill="#8ED16F"/>
<g opacity="0.3">
<path opacity="0.3" d="M0 117.528C0 117.528 21.4193 114.116 23.3711 133.312C25.3229 152.508 64.5583 155.17 64.5583 155.17C64.5583 155.17 64.2924 155.346 63.8217 155.659C31.4256 176.932 0.457371 169.205 5.12414 140.968C6.86321 130.467 6.71962 119.923 0 117.528Z" fill="white"/>
</g>
<path d="M28.0113 117.291C31.2642 117.291 33.9013 110.411 33.9013 101.924C33.9013 93.4367 31.2642 86.5566 28.0113 86.5566C24.7584 86.5566 22.1213 93.4367 22.1213 101.924C22.1213 110.411 24.7584 117.291 28.0113 117.291Z" fill="#8ED16F"/>
<path opacity="0.3" d="M28.0113 117.291C31.2642 117.291 33.9013 110.411 33.9013 101.924C33.9013 93.4367 31.2642 86.5566 28.0113 86.5566C24.7584 86.5566 22.1213 93.4367 22.1213 101.924C22.1213 110.411 24.7584 117.291 28.0113 117.291Z" fill="black"/>
<path d="M27.4731 157.734C29.0235 156.184 27.4829 152.129 24.0322 148.679C20.5814 145.228 16.5271 143.687 14.9767 145.238C13.4263 146.788 14.9668 150.842 18.4176 154.293C21.8684 157.744 25.9227 159.284 27.4731 157.734Z" fill="#8ED16F"/>
<path opacity="0.3" d="M27.4731 157.734C29.0235 156.184 27.4829 152.129 24.0322 148.679C20.5814 145.228 16.5271 143.687 14.9767 145.238C13.4263 146.788 14.9668 150.842 18.4176 154.293C21.8684 157.744 25.9227 159.284 27.4731 157.734Z" fill="black"/>
<path d="M192.492 70.5898H53.0629C51.378 70.5898 49.7622 71.2591 48.5709 72.4505C47.3795 73.6418 46.7102 75.2577 46.7102 76.9425V158.665C46.7102 160.35 47.3795 161.966 48.5709 163.157C49.7622 164.349 51.378 165.018 53.0629 165.018H192.492C194.176 165.018 195.792 164.349 196.984 163.157C198.175 161.966 198.844 160.35 198.844 158.665V76.9425C198.844 75.2577 198.175 73.6418 196.984 72.4505C195.792 71.2591 194.176 70.5898 192.492 70.5898V70.5898Z" fill="url(#paint0_linear_2365_74173)"/>
<path d="M190.455 71.7012H55.0972C51.4536 71.7012 48.4999 74.6549 48.4999 78.2985V157.309C48.4999 160.953 51.4536 163.906 55.0972 163.906H190.455C194.098 163.906 197.052 160.953 197.052 157.309V78.2985C197.052 74.6549 194.098 71.7012 190.455 71.7012Z" fill="#0B1941"/>
<path d="M197.052 87.8359H48.4999V104.74H197.052V87.8359Z" fill="#0B1941"/>
<path opacity="0.3" d="M197.052 87.8359H48.4999V104.74H197.052V87.8359Z" fill="white"/>
<path d="M182.967 117.291H62.5879V125.486H182.967V117.291Z" fill="#D6D6E3"/>
<path d="M72.5756 157.761C79.0829 157.761 84.3582 152.485 84.3582 145.978C84.3582 139.471 79.0829 134.195 72.5756 134.195C66.0682 134.195 60.793 139.471 60.793 145.978C60.793 152.485 66.0682 157.761 72.5756 157.761Z" fill="#0B1941"/>
<path opacity="0.3" d="M72.5756 157.761C79.0829 157.761 84.3582 152.485 84.3582 145.978C84.3582 139.471 79.0829 134.195 72.5756 134.195C66.0682 134.195 60.793 139.471 60.793 145.978C60.793 152.485 66.0682 157.761 72.5756 157.761Z" fill="white"/>
<path d="M188.607 48.9653C188.797 49.5666 189.201 50.0775 189.742 50.4012C192.186 52.0153 197.499 51.6723 198.137 51.6723C198.273 51.6723 198.451 51.9142 198.648 52.3211C199.586 54.2569 201.041 59.9315 201.139 61.2079C201.269 62.7528 202.705 69.983 205.056 72.6767C205.128 72.7591 205.2 72.8363 205.269 72.908C207.574 75.2241 210.279 72.6767 210.279 72.6767L210.667 71.3285C210.558 71.8604 210.435 72.4799 210.313 73.174C210.252 73.5223 210.191 73.8919 210.132 74.2722C209.782 76.4148 209.598 78.5814 209.582 80.7525C209.576 81.5408 209.61 82.3289 209.683 83.1138C209.704 83.3318 209.728 83.5472 209.757 83.7573C209.877 84.7134 209.936 85.6762 209.933 86.6398C209.912 92.3622 208.452 99.4807 208.452 99.4807L208.508 99.4621C208.473 99.6403 208.452 99.728 208.452 99.728L208.537 99.7014C208.496 99.9656 208.457 100.236 208.42 100.512C207.925 104.102 207.641 108.57 207.505 111.149C207.435 112.51 207.496 113.874 207.686 115.223L210.281 133.494V142.003C210.272 143.292 210.43 144.577 210.749 145.827C211.595 149.042 210.898 160.263 210.507 165.587C210.398 167.039 210.313 168.054 210.289 168.347V168.435L210.364 168.405C210.364 168.466 210.364 168.498 210.364 168.498C210.474 168.451 210.591 168.417 210.709 168.397C209.68 169.993 207.816 172.631 206.383 173.075C205.538 173.332 204.787 173.83 204.221 174.508L204.184 174.559L204.131 174.633C203.953 174.87 203.846 175.152 203.82 175.447C203.799 175.396 203.783 175.343 203.772 175.29C203.663 175.883 204.019 176.425 205.138 176.688C205.791 176.813 206.455 176.867 207.12 176.848C211.002 176.848 217.892 175.654 218.652 174.37V169.94L218.777 169.979V170.019L219.253 170.176L220.559 165.794C222.125 164.635 220.825 143.885 220.559 139.118C220.319 134.773 223.008 117.488 223.484 114.444L223.42 114.367L223.492 113.922C223.588 113.992 223.677 114.07 223.758 114.156C223.914 114.342 224.05 114.543 224.165 114.757C224.389 115.138 224.582 115.536 224.742 115.949C227.369 122.501 228.552 141.237 228.552 142.918V160.537C228.547 162.276 228.788 164.006 229.27 165.677C229.511 166.556 229.698 167.45 229.828 168.352C229.884 168.706 229.932 169.057 229.977 169.392C230.023 169.727 230.068 170.11 230.102 170.424C230.102 170.506 230.121 170.586 230.129 170.66C230.137 170.735 230.129 170.732 230.129 170.769C230.201 171.463 230.238 171.918 230.238 171.918C230.248 171.88 230.266 171.845 230.291 171.814L230.304 171.982C230.323 171.918 230.359 171.861 230.408 171.817C230.516 171.711 230.634 171.615 230.759 171.53V173.769L230.695 173.721V174.106C233.402 176.149 237.809 176.766 241.191 176.742C243.385 176.742 245.161 176.476 245.778 176.167C246.661 175.734 246.177 174.723 245.374 173.95C244.752 173.349 243.94 172.886 243.427 172.944C242.571 173.037 239.643 169.722 238.109 167.905L238.282 167.828L238.527 167.722V138.344C238.527 138.344 238.92 126.745 240.093 115.273C240.649 109.491 239.965 103.656 238.085 98.1591L238.048 98.0501L238.404 98.1059C238.782 98.1644 238.984 98.199 238.984 98.199C238.984 98.199 238.984 98.1086 238.96 97.9331H238.984C238.984 97.9331 238.527 92.9579 238.521 86.7089C238.521 79.625 239.119 70.9882 241.595 66.1007C243.02 63.2873 243.496 61.0483 243.457 59.2827C243.519 57.729 243.071 56.1976 242.183 54.9217C241.81 54.4081 241.303 54.007 240.718 53.7623L240.667 53.7331H240.641C240.213 53.5601 239.756 53.4698 239.295 53.4672H233.947C233.329 53.4677 232.72 53.3073 232.182 53.0018L230.089 51.8159C229.392 50.2922 229.291 48.4042 229.44 46.6332C229.44 46.4923 229.467 46.3513 229.48 46.2131L229.632 46.0535C229.749 45.9285 229.858 45.7876 229.964 45.6679C229.962 45.7729 229.954 45.8776 229.94 45.9817C229.914 46.1492 229.868 46.2476 229.797 46.2689C230.94 46.12 232.216 45.894 232.918 45.0111C232.948 44.9766 232.974 44.9393 233.001 44.9021C233.208 44.5663 233.38 44.2098 233.514 43.8385C233.612 43.5847 233.744 43.3451 233.905 43.1258C234.08 42.8971 234.309 42.711 234.498 42.4929L234.53 42.4557C235.203 41.658 235.24 40.5146 235.248 39.4722C235.261 36.9407 235.187 34.1539 233.493 32.2553C232.086 30.6758 229.842 30.0775 227.712 30.0083C225.582 29.9392 223.457 30.3221 221.33 30.3328C219.883 30.3328 218.139 30.3088 217.341 31.5054C216.95 32.0931 216.902 32.8616 216.477 33.4253C216.232 33.7497 215.857 34.0289 215.836 34.4331C215.833 34.6196 215.881 34.8034 215.974 34.965V34.9836C216.49 35.9994 217.586 36.6322 218.729 36.8317C218.536 37.0643 218.358 37.3095 218.197 37.5656C217.499 38.6816 217.131 39.972 217.134 41.2884C217.134 41.4426 217.134 41.5942 217.15 41.7457C217.268 43.5336 218.066 45.2087 219.378 46.4285C219.357 46.5774 219.336 46.7263 219.312 46.8725L219.36 46.9151C219.51 47.0516 219.667 47.181 219.83 47.3033L219.889 47.3485C219.889 47.4416 219.889 47.5347 219.889 47.6144C219.889 47.7687 219.889 47.9255 219.873 48.0771C219.857 48.2287 219.873 48.3218 219.857 48.4441L219.822 48.4148L217.224 46.245L213.047 42.3786C213.047 42.3786 202.602 34.7762 202.078 38.3899C202.015 39.0317 202.192 39.6742 202.575 40.1928C204.492 43.1178 211.084 45.6068 211.084 45.6068C211.084 45.6068 215.014 49.763 217.644 54.2436C217.551 54.2942 217.458 54.342 217.36 54.3872C215.02 55.4748 211.605 55.0148 211.605 55.0148C207.662 55.629 207.306 59.9501 207.327 61.6972C207.327 61.7796 207.327 61.8594 207.327 61.9312C207.327 62.003 207.327 62.0189 207.327 62.0588L202.094 49.771L202.078 49.7337C201.907 49.3337 201.638 48.9832 201.296 48.7145C200.954 48.4459 200.55 48.2678 200.121 48.1968C196.621 47.6091 187.875 46.3833 188.607 48.9653ZM210.515 168.36C210.592 168.342 210.669 168.328 210.747 168.318L210.723 168.355L210.515 168.36Z" fill="url(#paint1_linear_2365_74173)"/>
<path d="M236.662 165.848C236.662 165.848 241.619 172.078 242.765 171.95C243.911 171.823 246.578 174.365 245.055 175.141C243.531 175.918 234.759 176.412 230.429 173.107V168.127L236.662 165.848Z" fill="#ACA9C9"/>
<path d="M211.616 166.227C211.616 166.227 208.691 171.438 206.659 172.077C204.628 172.715 202.846 175.002 205.516 175.637C208.186 176.273 217.721 174.874 218.61 173.348V166.607L211.616 166.227Z" fill="#ACA9C9"/>
<path d="M207.944 115.026L210.47 133.049V141.428C210.462 142.699 210.616 143.966 210.927 145.199C211.752 148.371 211.074 159.438 210.691 164.69C210.566 166.403 210.47 167.498 210.47 167.498C212.121 166.735 219.115 169.149 219.115 169.149L219.822 166.743L220.386 164.828C221.912 163.685 220.652 143.218 220.386 138.503C220.213 135.283 221.649 124.843 222.569 118.586C222.835 116.818 223.05 115.395 223.181 114.539C223.263 114.007 223.308 113.712 223.308 113.712C223.588 113.94 223.821 114.221 223.994 114.539C224.213 114.915 224.401 115.308 224.555 115.714C227.113 122.179 228.278 140.66 228.278 142.306V159.686C228.273 161.4 228.508 163.107 228.977 164.757C229.292 165.96 229.523 167.183 229.666 168.418C229.847 169.798 229.932 170.91 229.932 170.91C230.06 170.147 237.941 166.714 237.941 166.714V137.729C237.941 137.729 238.322 126.295 239.468 114.972C239.96 109.822 239.464 104.625 238.005 99.6611C237.689 98.5789 237.372 97.6615 237.098 96.9355C236.633 95.699 236.301 95.0156 236.301 95.0156H210.337C209.901 95.0981 209.539 95.9756 209.212 97.3078C208.999 98.2013 208.813 99.2968 208.651 100.499C208.17 104.038 207.893 108.444 207.76 110.992C207.693 112.339 207.755 113.69 207.944 115.026V115.026Z" fill="#618FD8"/>
<g opacity="0.1">
<path opacity="0.1" d="M237.484 166.796V137.812C237.484 137.812 237.864 126.378 239.01 115.055C240.156 103.733 235.819 95.0957 235.819 95.0957H236.327C236.327 95.0957 240.648 103.741 239.518 115.055C238.388 126.37 237.992 137.812 237.992 137.812V166.796C237.992 166.796 230.11 170.229 229.983 170.993C229.983 170.993 229.983 170.822 229.943 170.53C231.661 169.336 237.484 166.796 237.484 166.796Z" fill="black"/>
<path opacity="0.1" d="M211.233 167.419C210.993 167.424 210.756 167.472 210.534 167.562V167.435C210.766 167.411 211 167.406 211.233 167.419V167.419Z" fill="black"/>
<path opacity="0.1" d="M219.942 164.893C221.468 163.75 220.208 143.282 219.942 138.568C219.676 133.853 222.867 113.779 222.867 113.779C223.034 113.908 223.182 114.061 223.306 114.231C222.838 117.231 220.221 134.284 220.452 138.568C220.718 143.272 221.979 163.739 220.452 164.893L219.181 169.214L218.719 169.06L219.942 164.893Z" fill="black"/>
</g>
<path d="M213.14 63.6359L210.481 73.0439C210.481 73.0439 207.683 75.703 205.396 73.0439C203.109 70.3848 201.7 63.2556 201.562 61.7293C201.424 60.203 199.4 52.3213 198.637 52.3213C197.874 52.3213 190.247 52.8292 189.356 49.6622C188.644 47.1147 197.158 48.3326 200.567 48.9043C200.987 48.9758 201.382 49.1522 201.715 49.4172C202.049 49.6822 202.31 50.0272 202.474 50.42L207.702 62.9046C207.702 62.9046 210.47 59.6951 213.14 63.6359Z" fill="#F7C4A7"/>
<path d="M230.302 41.7695C230.302 41.7695 226.996 51.0499 231.193 54.3552C235.389 57.6605 216.187 58.5513 216.187 58.5513L218.793 56.073C218.793 56.073 220.636 48.763 219.365 42.6603L230.302 41.7695Z" fill="#F7C4A7"/>
<path opacity="0.1" d="M226.233 54.3558C226.233 54.3558 229.602 53.5288 229.602 52.6406L232.589 54.3558H240.09C240.09 54.3558 245.557 57.4058 240.981 66.5612C236.404 75.7165 238.439 98.2048 238.439 98.2048C238.439 98.2048 222.167 95.2798 208.691 99.7311C208.691 99.7311 210.725 89.6876 209.962 83.9678C209.199 78.248 211.233 70.2387 211.233 70.2387L212.377 65.4071C212.377 65.4071 212.313 60.8866 207.609 63.1814C207.609 63.1814 206.909 56.6346 211.741 55.8715C211.741 55.8715 217.325 56.6346 218.987 53.8372C218.987 53.8479 222.675 56.0097 226.233 54.3558Z" fill="black"/>
<path d="M226.233 54.1019C226.233 54.1019 229.602 53.2749 229.602 52.3867L231.791 53.6445C232.314 53.9441 232.906 54.1018 233.509 54.1019H238.755C239.303 54.1003 239.844 54.2292 240.333 54.478C240.822 54.7267 241.244 55.0882 241.566 55.5325C242.77 57.2263 243.85 60.5662 240.981 66.3073C236.404 75.46 238.439 97.9509 238.439 97.9509C238.439 97.9509 222.167 95.0258 208.691 99.4772C208.691 99.4772 210.725 89.4337 209.962 83.7139C209.199 77.9941 211.233 70.0034 211.233 70.0034L212.377 65.1718C212.377 65.1718 212.313 60.6513 207.609 62.9461C207.609 62.9461 206.928 56.5802 211.542 55.6707C211.67 55.6422 211.802 55.6333 211.932 55.6442C212.919 55.7479 217.517 56.0802 218.99 53.5886C218.987 53.5913 222.675 55.7532 226.233 54.1019Z" fill="#0B1941"/>
<path opacity="0.1" d="M239.074 65.6701C239.074 65.6701 235.006 68.2123 228.395 65.6701C228.395 65.6701 221.149 63.011 218.86 57.7885C216.57 52.5659 230.427 58.6793 230.427 58.6793C230.427 58.6793 233.352 58.6793 234.24 58.0437C235.128 57.4082 241.361 62.8727 239.074 65.6701Z" fill="black"/>
<path d="M239.074 65.1621C239.074 65.1621 235.006 67.7042 228.395 65.1621C228.395 65.1621 221.149 62.503 218.859 57.2804C216.57 52.0579 211.233 46.3381 211.233 46.3381C211.233 46.3381 201.953 42.7775 202.458 39.2196C202.963 35.6617 213.137 43.1605 213.137 43.1605L217.206 46.9737L230.427 58.1606C230.427 58.1606 233.352 58.1606 234.24 57.5251C235.128 56.8895 241.361 62.3647 239.074 65.1621Z" fill="#F7C4A7"/>
<path opacity="0.1" d="M219.242 43.0412L230.174 42.1504C229.612 43.831 229.23 45.5665 229.033 47.3277C227.762 48.6455 226.025 49.4117 224.195 49.4614C222.365 49.5112 220.588 48.8405 219.248 47.5936C219.526 46.0888 219.525 44.5454 219.242 43.0412V43.0412Z" fill="black"/>
<path d="M224.138 49.0794C227.999 49.0794 231.129 45.9494 231.129 42.0885C231.129 38.2276 227.999 35.0977 224.138 35.0977C220.277 35.0977 217.147 38.2276 217.147 42.0885C217.147 45.9494 220.277 49.0794 224.138 49.0794Z" fill="#F7C4A7"/>
<path opacity="0.1" d="M227.975 43.6067C227.565 42.9312 228.398 42.0511 228.124 41.3118C227.871 40.6311 226.866 40.5141 226.528 39.8786C226.263 39.3653 226.528 38.7351 226.422 38.1687C226.27 37.4375 225.483 36.9828 224.736 36.9455C223.989 36.9083 223.268 37.1875 222.558 37.4268C221.402 37.8177 220.184 38.1182 218.971 37.9799C217.759 37.8417 216.549 37.1822 216.009 36.0999C215.921 35.9423 215.874 35.7647 215.873 35.5841C215.895 35.1852 216.262 34.9113 216.498 34.5922C216.913 34.0364 216.961 33.2786 217.338 32.6989C218.11 31.5183 219.803 31.5475 221.213 31.5422C223.287 31.5422 225.35 31.154 227.425 31.2231C229.499 31.2922 231.679 31.8799 233.054 33.4381C234.703 35.3128 234.777 38.057 234.764 40.5566C234.764 41.5857 234.721 42.7052 234.064 43.5003C233.873 43.7316 233.639 43.9231 233.455 44.1598C233.057 44.6916 232.95 45.3723 232.575 45.9121C231.91 46.8721 230.613 47.1061 229.456 47.2603C229.796 47.2151 229.515 44.9362 229.456 44.7261C229.233 43.6784 228.991 43.6997 227.975 43.6067Z" fill="black"/>
<path d="M227.975 43.3547C227.565 42.6793 228.398 41.7991 228.124 41.0599C227.871 40.3791 226.866 40.2621 226.528 39.6266C226.263 39.1134 226.528 38.4832 226.422 37.9168C226.27 37.1855 225.483 36.7308 224.736 36.6936C223.989 36.6564 223.268 36.9356 222.558 37.1749C221.402 37.5658 220.184 37.8663 218.971 37.728C217.759 37.5897 216.549 36.9302 216.009 35.848C215.921 35.6903 215.874 35.5128 215.873 35.3321C215.895 34.9332 216.262 34.6593 216.498 34.3403C216.913 33.7845 216.961 33.0266 217.338 32.447C218.11 31.2663 219.803 31.2956 221.213 31.2902C223.287 31.2902 225.35 30.902 227.425 30.9711C229.499 31.0403 231.679 31.6279 233.054 33.1862C234.703 35.0609 234.777 37.8051 234.764 40.3047C234.764 41.3338 234.721 42.4533 234.064 43.2483C233.873 43.4797 233.639 43.6711 233.455 43.9078C233.057 44.4396 232.95 45.1204 232.575 45.6602C231.91 46.6201 230.613 46.8541 229.456 47.0083C229.796 46.9631 229.515 44.6843 229.456 44.4742C229.233 43.4132 228.991 43.4451 227.975 43.3547Z" fill="#281C1C"/>
<path opacity="0.1" d="M239.01 65.9896C239.01 65.9896 235.578 57.0895 232.908 56.8369C230.238 56.5843 237.992 56.8369 237.992 56.8369L240.534 61.4132L239.01 65.9896Z" fill="black"/>
<path d="M239.266 65.9896C239.266 65.9896 235.833 57.0895 233.163 56.8369C230.493 56.5843 238.247 56.8369 238.247 56.8369L240.789 61.4132L239.266 65.9896Z" fill="#0B1941"/>
<path d="M229.656 168.439C229.836 169.819 229.921 170.931 229.921 170.931C230.049 170.168 237.931 166.735 237.931 166.735V164.668C237.73 164.661 237.529 164.671 237.33 164.698C235.801 164.902 234.383 165.644 233.075 166.437C231.97 167.162 230.829 167.83 229.656 168.439V168.439Z" fill="#618FD8"/>
<path opacity="0.3" d="M229.656 168.439C229.836 169.819 229.921 170.931 229.921 170.931C230.049 170.168 237.931 166.735 237.931 166.735V164.668C237.73 164.661 237.529 164.671 237.33 164.698C235.801 164.902 234.383 165.644 233.075 166.437C231.97 167.162 230.829 167.83 229.656 168.439V168.439Z" fill="black"/>
<path d="M210.47 167.498C212.121 166.735 219.115 169.15 219.115 169.15L219.822 166.743C218.602 166.496 217.389 166.187 216.198 165.82C215.642 165.659 215.098 165.459 214.57 165.219C214.218 165.031 213.856 164.863 213.485 164.714C212.573 164.4 211.624 164.533 210.688 164.69C210.566 166.403 210.47 167.498 210.47 167.498Z" fill="#618FD8"/>
<path opacity="0.3" d="M210.47 167.498C212.121 166.735 219.115 169.15 219.115 169.15L219.822 166.743C218.602 166.496 217.389 166.187 216.198 165.82C215.642 165.659 215.098 165.459 214.57 165.219C214.218 165.031 213.856 164.863 213.485 164.714C212.573 164.4 211.624 164.533 210.688 164.69C210.566 166.403 210.47 167.498 210.47 167.498Z" fill="black"/>
<path opacity="0.4" d="M244.985 174.745C245.092 174.7 245.186 174.631 245.262 174.543C245.337 174.455 245.392 174.352 245.422 174.24C245.469 174.415 245.451 174.602 245.371 174.765C245.29 174.928 245.153 175.056 244.985 175.125C243.459 175.889 234.689 176.397 230.36 173.091V172.711C234.689 176.016 243.459 175.508 244.985 174.745Z" fill="white"/>
<path opacity="0.4" d="M205.45 175.252C208.109 175.888 217.655 174.489 218.543 172.963V173.343C217.652 174.869 208.119 176.268 205.45 175.633C204.359 175.367 204.011 174.835 204.12 174.253C204.205 174.683 204.604 175.04 205.45 175.252Z" fill="white"/>
<path opacity="0.1" d="M220.958 82.644C220.958 82.644 218.16 81.7532 217.397 82.644C216.634 83.5348 210.111 85.6222 210.111 85.6222" fill="black"/>
<path d="M189.306 47.7129H202.907V47.4257H189.306V47.7129Z" fill="#8ED16F"/>
<path d="M189.306 48H202.907V47.7128H189.306V48Z" fill="#8ED16F"/>
<path opacity="0.1" d="M189.306 48H202.907V47.7128H189.306V48Z" fill="black"/>
<path d="M189.306 48.2871H202.907V47.9999H189.306V48.2871Z" fill="#8ED16F"/>
<path d="M189.306 48.5723H202.907V48.2851H189.306V48.5723Z" fill="#8ED16F"/>
<path opacity="0.1" d="M189.306 48.5723H202.907V48.2851H189.306V48.5723Z" fill="black"/>
<path d="M189.306 48.8594H202.907V48.5722H189.306V48.8594Z" fill="#8ED16F"/>
<path d="M189.306 49.1426H202.907V48.8554H189.306V49.1426Z" fill="#8ED16F"/>
<path opacity="0.1" d="M189.306 49.1426H202.907V48.8554H189.306V49.1426Z" fill="black"/>
<path d="M189.306 49.4297H202.907V49.1425H189.306V49.4297Z" fill="#8ED16F"/>
<path d="M189.306 49.7148H202.907V49.4277H189.306V49.7148Z" fill="#8ED16F"/>
<path opacity="0.1" d="M189.306 49.7148H202.907V49.4277H189.306V49.7148Z" fill="black"/>
<path d="M189.306 45.4258H202.907V45.1386H189.306V45.4258Z" fill="#8ED16F"/>
<path d="M198.927 38.6269L209.384 47.3242L209.568 47.1034L199.11 38.4061L198.927 38.6269Z" fill="#8ED16F"/>
<path d="M189.393 34.0508L199.85 42.748L200.033 42.5272L189.576 33.83L189.393 34.0508Z" fill="#8ED16F"/>
<path d="M189.306 45.7109H202.907V45.4238H189.306V45.7109Z" fill="#8ED16F"/>
<path opacity="0.1" d="M189.306 45.7109H202.907V45.4238H189.306V45.7109Z" fill="black"/>
<path d="M189.306 46H202.907V45.7128H189.306V46Z" fill="#8ED16F"/>
<path d="M189.306 46.2852H202.907V45.998H189.306V46.2852Z" fill="#8ED16F"/>
<path opacity="0.1" d="M189.306 46.2852H202.907V45.998H189.306V46.2852Z" fill="black"/>
<path d="M189.306 46.5684H202.907V46.2812H189.306V46.5684Z" fill="#8ED16F"/>
<path d="M189.306 46.8574H202.907V46.5702H189.306V46.8574Z" fill="#8ED16F"/>
<path opacity="0.1" d="M189.306 46.8574H202.907V46.5702H189.306V46.8574Z" fill="black"/>
<path d="M189.306 47.1406H202.907V46.8534H189.306V47.1406Z" fill="#8ED16F"/>
<path d="M189.306 47.4277H202.907V47.1405H189.306V47.4277Z" fill="#8ED16F"/>
<path opacity="0.1" d="M189.306 47.4277H202.907V47.1405H189.306V47.4277Z" fill="black"/>
<path d="M187.582 58.5794L192.455 59.4844L194.219 49.9861L189.346 49.0812L187.582 58.5794Z" fill="#8ED16F"/>
<path d="M191.967 54.4978C192.172 53.3933 191.891 52.4148 191.34 52.3123C190.788 52.2099 190.175 53.0223 189.97 54.1269C189.764 55.2315 190.045 56.21 190.597 56.3124C191.148 56.4148 191.762 55.6024 191.967 54.4978Z" fill="#8ED16F"/>
<path opacity="0.1" d="M191.967 54.4978C192.172 53.3933 191.891 52.4148 191.34 52.3123C190.788 52.2099 190.175 53.0223 189.97 54.1269C189.764 55.2315 190.045 56.21 190.597 56.3124C191.148 56.4148 191.762 55.6024 191.967 54.4978Z" fill="black"/>
<path d="M188.416 78.6263L193.289 79.5312L195.053 70.033L190.18 69.128L188.416 78.6263Z" fill="#8ED16F"/>
<path d="M192.798 74.5447C193.003 73.4401 192.723 72.4616 192.171 72.3592C191.619 72.2568 191.006 73.0692 190.801 74.1738C190.596 75.2784 190.877 76.2569 191.428 76.3593C191.98 76.4617 192.593 75.6493 192.798 74.5447Z" fill="#8ED16F"/>
<path opacity="0.1" d="M192.798 74.5447C193.003 73.4401 192.723 72.4616 192.171 72.3592C191.619 72.2568 191.006 73.0692 190.801 74.1738C190.596 75.2784 190.877 76.2569 191.428 76.3593C191.98 76.4617 192.593 75.6493 192.798 74.5447Z" fill="black"/>
<path d="M170.79 29.3497L168.431 33.709L176.927 38.3068L179.286 33.9475L170.79 29.3497Z" fill="#8ED16F"/>
<path d="M176.476 34.9906C176.745 34.4969 176.162 33.6596 175.173 33.1203C174.184 32.581 173.165 32.5441 172.895 33.0377C172.626 33.5314 173.209 34.3688 174.198 34.9081C175.187 35.4473 176.206 35.4843 176.476 34.9906Z" fill="#8ED16F"/>
<path opacity="0.1" d="M176.476 34.9906C176.745 34.4969 176.162 33.6596 175.173 33.1203C174.184 32.581 173.165 32.5441 172.895 33.0377C172.626 33.5314 173.209 34.3688 174.198 34.9081C175.187 35.4473 176.206 35.4843 176.476 34.9906Z" fill="black"/>
<path d="M152.134 115.379L149.775 119.738L158.271 124.336L160.63 119.977L152.134 115.379Z" fill="#8ED16F"/>
<path d="M156.964 120.883C157.231 120.389 156.646 119.556 155.658 119.021C154.67 118.487 153.653 118.453 153.386 118.946C153.119 119.44 153.703 120.273 154.691 120.808C155.68 121.343 156.697 121.376 156.964 120.883Z" fill="#8ED16F"/>
<path opacity="0.1" d="M156.964 120.883C157.231 120.389 156.646 119.556 155.658 119.021C154.67 118.487 153.653 118.453 153.386 118.946C153.119 119.44 153.703 120.273 154.691 120.808C155.68 121.343 156.697 121.376 156.964 120.883Z" fill="black"/>
<path d="M140.719 44.3849L138.36 48.7441L146.857 53.3419L149.216 48.9827L140.719 44.3849Z" fill="#8ED16F"/>
<path d="M145.547 49.8847C145.814 49.3913 145.23 48.5579 144.242 48.0232C143.254 47.4885 142.236 47.455 141.969 47.9484C141.702 48.4418 142.287 49.2753 143.275 49.81C144.263 50.3446 145.28 50.3781 145.547 49.8847Z" fill="#8ED16F"/>
<path opacity="0.1" d="M145.547 49.8847C145.814 49.3913 145.23 48.5579 144.242 48.0232C143.254 47.4885 142.236 47.455 141.969 47.9484C141.702 48.4418 142.287 49.2753 143.275 49.81C144.263 50.3446 145.28 50.3781 145.547 49.8847Z" fill="black"/>
<path d="M155.025 29.3478L152.666 33.707L161.163 38.3048L163.522 33.9456L155.025 29.3478Z" fill="#8ED16F"/>
<path d="M159.853 34.8496C160.12 34.3562 159.536 33.5228 158.548 32.9881C157.56 32.4534 156.542 32.4199 156.275 32.9133C156.008 33.4067 156.593 34.2401 157.581 34.7748C158.569 35.3095 159.586 35.343 159.853 34.8496Z" fill="#8ED16F"/>
<path opacity="0.1" d="M159.853 34.8496C160.12 34.3562 159.536 33.5228 158.548 32.9881C157.56 32.4534 156.542 32.4199 156.275 32.9133C156.008 33.4067 156.593 34.2401 157.581 34.7748C158.569 35.3095 159.586 35.343 159.853 34.8496Z" fill="black"/>
<path d="M169.308 47.0902L164.381 47.6289L165.431 57.2323L170.358 56.6935L169.308 47.0902Z" fill="#8ED16F"/>
<path d="M167.526 54.1918C168.083 54.1308 168.436 53.176 168.314 52.0592C168.192 50.9424 167.641 50.0864 167.084 50.1474C166.526 50.2084 166.173 51.1632 166.295 52.28C166.417 53.3968 166.968 54.2527 167.526 54.1918Z" fill="#8ED16F"/>
<path opacity="0.1" d="M167.526 54.1918C168.083 54.1308 168.436 53.176 168.314 52.0592C168.192 50.9424 167.641 50.0864 167.084 50.1474C166.526 50.2084 166.173 51.1632 166.295 52.28C166.417 53.3968 166.968 54.2527 167.526 54.1918Z" fill="black"/>
<path d="M203.09 99.6761L198.163 100.215L199.213 109.818L204.14 109.279L203.09 99.6761Z" fill="#8ED16F"/>
<path d="M201.31 106.778C201.868 106.717 202.221 105.762 202.099 104.645C201.977 103.528 201.425 102.672 200.868 102.733C200.31 102.794 199.957 103.749 200.079 104.866C200.201 105.983 200.752 106.839 201.31 106.778Z" fill="#8ED16F"/>
<path opacity="0.1" d="M201.31 106.778C201.868 106.717 202.221 105.762 202.099 104.645C201.977 103.528 201.425 102.672 200.868 102.733C200.31 102.794 199.957 103.749 200.079 104.866C200.201 105.983 200.752 106.839 201.31 106.778Z" fill="black"/>
<path d="M150.015 67.4904L147.656 71.8496L156.152 76.4474L158.511 72.0881L150.015 67.4904Z" fill="#8ED16F"/>
<path d="M154.841 72.9941C155.108 72.5007 154.523 71.6673 153.535 71.1326C152.547 70.5979 151.53 70.5644 151.263 71.0578C150.996 71.5512 151.58 72.3846 152.569 72.9193C153.557 73.454 154.574 73.4875 154.841 72.9941Z" fill="#8ED16F"/>
<path opacity="0.1" d="M154.841 72.9941C155.108 72.5007 154.523 71.6673 153.535 71.1326C152.547 70.5979 151.53 70.5644 151.263 71.0578C150.996 71.5512 151.58 72.3846 152.569 72.9193C153.557 73.454 154.574 73.4875 154.841 72.9941Z" fill="black"/>
<path d="M128.574 61.3654L126.215 65.7246L134.712 70.3224L137.071 65.9631L128.574 61.3654Z" fill="#8ED16F"/>
<path d="M134.108 67.1605C134.377 66.6668 133.794 65.8295 132.805 65.2902C131.817 64.7509 130.797 64.714 130.528 65.2077C130.258 65.7014 130.842 66.5387 131.83 67.078C132.819 67.6173 133.839 67.6542 134.108 67.1605Z" fill="#8ED16F"/>
<path opacity="0.1" d="M134.108 67.1605C134.377 66.6668 133.794 65.8295 132.805 65.2902C131.817 64.7509 130.797 64.714 130.528 65.2077C130.258 65.7014 130.842 66.5387 131.83 67.078C132.819 67.6173 133.839 67.6542 134.108 67.1605Z" fill="black"/>
<path d="M121.708 164.463L119.349 168.822L127.845 173.42L130.204 169.061L121.708 164.463Z" fill="#8ED16F"/>
<path d="M126.535 169.965C126.802 169.471 126.218 168.638 125.23 168.103C124.242 167.569 123.224 167.535 122.957 168.029C122.69 168.522 123.275 169.355 124.263 169.89C125.251 170.425 126.268 170.458 126.535 169.965Z" fill="#8ED16F"/>
<path opacity="0.1" d="M126.535 169.965C126.802 169.471 126.218 168.638 125.23 168.103C124.242 167.569 123.224 167.535 122.957 168.029C122.69 168.522 123.275 169.355 124.263 169.89C125.251 170.425 126.268 170.458 126.535 169.965Z" fill="black"/>
<path d="M115.526 166.142L114.622 171.016L124.12 172.778L125.025 167.904L115.526 166.142Z" fill="#8ED16F"/>
<path opacity="0.05" d="M115.526 166.142L114.622 171.016L124.12 172.778L125.025 167.904L115.526 166.142Z" fill="black"/>
<path d="M121.814 169.894C121.916 169.342 121.103 168.729 119.999 168.524C118.894 168.319 117.916 168.6 117.813 169.152C117.711 169.703 118.524 170.317 119.628 170.521C120.733 170.726 121.711 170.445 121.814 169.894Z" fill="#8ED16F"/>
<path opacity="0.1" d="M121.814 169.894C121.916 169.342 121.103 168.729 119.999 168.524C118.894 168.319 117.916 168.6 117.813 169.152C117.711 169.703 118.524 170.317 119.628 170.521C120.733 170.726 121.711 170.445 121.814 169.894Z" fill="black"/>
<path d="M116.416 169.066L115.512 173.939L125.01 175.702L125.915 170.828L116.416 169.066Z" fill="#8ED16F"/>
<path d="M122.701 172.816C122.803 172.264 121.991 171.651 120.886 171.446C119.782 171.241 118.803 171.522 118.701 172.074C118.598 172.625 119.411 173.238 120.516 173.443C121.62 173.648 122.599 173.367 122.701 172.816Z" fill="#8ED16F"/>
<path opacity="0.1" d="M122.701 172.816C122.803 172.264 121.991 171.651 120.886 171.446C119.782 171.241 118.803 171.522 118.701 172.074C118.598 172.625 119.411 173.238 120.516 173.443C121.62 173.648 122.599 173.367 122.701 172.816Z" fill="black"/>
<path d="M131.73 176.992L129.371 181.352L137.867 185.949L140.226 181.59L131.73 176.992Z" fill="#8ED16F"/>
<path d="M136.56 182.494C136.827 182.001 136.242 181.167 135.254 180.633C134.266 180.098 133.249 180.064 132.982 180.558C132.715 181.051 133.299 181.885 134.288 182.419C135.276 182.954 136.293 182.987 136.56 182.494Z" fill="#8ED16F"/>
<path opacity="0.1" d="M136.56 182.494C136.827 182.001 136.242 181.167 135.254 180.633C134.266 180.098 133.249 180.064 132.982 180.558C132.715 181.051 133.299 181.885 134.288 182.419C135.276 182.954 136.293 182.987 136.56 182.494Z" fill="black"/>
<path d="M125.55 178.669L124.646 183.543L134.144 185.305L135.049 180.432L125.55 178.669Z" fill="#8ED16F"/>
<path opacity="0.05" d="M125.55 178.669L124.646 183.543L134.144 185.305L135.049 180.432L125.55 178.669Z" fill="black"/>
<path d="M131.835 182.419C131.937 181.868 131.125 181.254 130.02 181.049C128.916 180.844 127.937 181.125 127.835 181.677C127.732 182.229 128.545 182.842 129.65 183.047C130.754 183.252 131.733 182.971 131.835 182.419Z" fill="#8ED16F"/>
<path opacity="0.1" d="M131.835 182.419C131.937 181.868 131.125 181.254 130.02 181.049C128.916 180.844 127.937 181.125 127.835 181.677C127.732 182.229 128.545 182.842 129.65 183.047C130.754 183.252 131.733 182.971 131.835 182.419Z" fill="black"/>
<path d="M126.439 181.593L125.535 186.467L135.034 188.229L135.938 183.355L126.439 181.593Z" fill="#8ED16F"/>
<path d="M132.727 185.345C132.829 184.793 132.017 184.18 130.912 183.975C129.808 183.77 128.829 184.051 128.727 184.603C128.625 185.154 129.437 185.768 130.542 185.973C131.646 186.178 132.625 185.897 132.727 185.345Z" fill="#8ED16F"/>
<path opacity="0.1" d="M132.727 185.345C132.829 184.793 132.017 184.18 130.912 183.975C129.808 183.77 128.829 184.051 128.727 184.603C128.625 185.154 129.437 185.768 130.542 185.973C131.646 186.178 132.625 185.897 132.727 185.345Z" fill="black"/>
<path d="M146.766 168.918L144.407 173.277L152.904 177.875L155.263 173.516L146.766 168.918Z" fill="#8ED16F"/>
<path d="M151.592 174.418C151.859 173.925 151.274 173.091 150.286 172.556C149.298 172.022 148.281 171.988 148.014 172.482C147.747 172.975 148.331 173.808 149.319 174.343C150.307 174.878 151.325 174.911 151.592 174.418Z" fill="#8ED16F"/>
<path opacity="0.1" d="M151.592 174.418C151.859 173.925 151.274 173.091 150.286 172.556C149.298 172.022 148.281 171.988 148.014 172.482C147.747 172.975 148.331 173.808 149.319 174.343C150.307 174.878 151.325 174.911 151.592 174.418Z" fill="black"/>
<path d="M140.585 170.595L139.681 175.469L149.18 177.231L150.084 172.357L140.585 170.595Z" fill="#8ED16F"/>
<path opacity="0.05" d="M140.585 170.595L139.681 175.469L149.18 177.231L150.084 172.357L140.585 170.595Z" fill="black"/>
<path d="M146.87 174.347C146.973 173.795 146.16 173.182 145.056 172.977C143.951 172.772 142.973 173.053 142.87 173.605C142.768 174.156 143.58 174.77 144.685 174.975C145.79 175.18 146.768 174.898 146.87 174.347Z" fill="#8ED16F"/>
<path opacity="0.1" d="M146.87 174.347C146.973 173.795 146.16 173.182 145.056 172.977C143.951 172.772 142.973 173.053 142.87 173.605C142.768 174.156 143.58 174.77 144.685 174.975C145.79 175.18 146.768 174.898 146.87 174.347Z" fill="black"/>
<path d="M141.475 173.521L140.571 178.395L150.069 180.157L150.973 175.283L141.475 173.521Z" fill="#8ED16F"/>
<path d="M147.763 177.273C147.865 176.721 147.052 176.108 145.948 175.903C144.843 175.698 143.865 175.979 143.762 176.531C143.66 177.082 144.473 177.695 145.577 177.9C146.682 178.105 147.66 177.824 147.763 177.273Z" fill="#8ED16F"/>
<path opacity="0.1" d="M147.763 177.273C147.865 176.721 147.052 176.108 145.948 175.903C144.843 175.698 143.865 175.979 143.762 176.531C143.66 177.082 144.473 177.695 145.577 177.9C146.682 178.105 147.66 177.824 147.763 177.273Z" fill="black"/>
</g>
<defs>
<linearGradient id="paint0_linear_2365_74173" x1="122.777" y1="165.018" x2="122.777" y2="70.5898" gradientUnits="userSpaceOnUse">
<stop stop-color="#808080" stop-opacity="0.25"/>
<stop offset="0.54" stop-color="#808080" stop-opacity="0.12"/>
<stop offset="1" stop-color="#808080" stop-opacity="0.1"/>
</linearGradient>
<linearGradient id="paint1_linear_2365_74173" x1="-170849" y1="111311" x2="-170849" y2="30222.7" gradientUnits="userSpaceOnUse">
<stop stop-color="#808080" stop-opacity="0.25"/>
<stop offset="0.54" stop-color="#808080" stop-opacity="0.12"/>
<stop offset="1" stop-color="#808080" stop-opacity="0.1"/>
</linearGradient>
<clipPath id="clip0_2365_74173">
<rect width="258.999" height="190" fill="white"/>
</clipPath>
</defs>
</svg>
